# xmcd
#
# Track frame offsets: 
#        150
#        14290
#        28288
#        40860
#        53231
#        67773
#        87163
#        106697
#        117124
#        131217
#        143395
#        166104
#        175836
#
# Disc length: 2577 seconds
#
# Revision: 2
# Processed by: cddbd v1.5PL3 Copyright (c) Steve Scherf et al.
# Submitted via: ExactAudioCopy v0.90b4
#
DISCID=9d0a0f0d
DTITLE=Terri Hendrix - Wilory Farm
DYEAR=1998
DGENRE=Country
TTITLE0=Flowers
TTITLE1=Walk On Me
TTITLE2=Wallet
TTITLE3=Sister's Apartment
TTITLE4=Love Like This
TTITLE5=Hole In My Pocket
TTITLE6=Gravity
TTITLE7=The Know How
TTITLE8=Lluvia De Estrellas (Rain Of Stars)
TTITLE9=Albert The Perfect Friend
TTITLE10=Wind Me Up
TTITLE11=The Last Song
TTITLE12=
EXTD=YEAR: 1998 ID3G:   2
EXTT0=
EXTT1=
EXTT2=
EXTT3=
EXTT4=
EXTT5=
EXTT6=
EXTT7=
EXTT8=
EXTT9=
EXTT10=
EXTT11=
EXTT12=
PLAYORDER=
